<svg width="100" height="100" viewBox="0 0 100 100" fill="none" xmlns="http://www.w3.org/2000/svg">
    <path fill-rule="evenodd" clip-rule="evenodd" d="M96.2374 38.635C97.7442 38.635 98.9998 37.4108 98.9998 35.8727C98.9998 34.366 97.7442 33.1104 96.2374 33.1104C94.7307 33.1104 93.4751 34.366 93.4751 35.8727C93.4751 37.4108 94.7307 38.635 96.2374 38.635ZM93.8832 35.9041C93.8832 34.6171 94.9504 33.5498 96.2374 33.5498C97.5244 33.5498 98.5917 34.6171 98.5917 35.9041C98.5917 37.1911 97.5244 38.2583 96.2374 38.2583C94.9504 38.227 93.8832 37.1911 93.8832 35.9041ZM95.2016 37.2852H95.7352V36.1238H96.363L96.8338 37.2852H97.4303L96.8966 36.0296C97.085 35.9355 97.3989 35.8413 97.3989 35.3077C97.3989 34.4601 96.7711 34.366 96.206 34.366H95.2329V37.2852H95.2016ZM95.7352 34.8682H96.3316C96.6455 34.8682 96.8338 34.9938 96.8338 35.2449C96.8338 35.496 96.6455 35.6216 96.3944 35.6216H95.7666V34.8682H95.7352Z" fill="#007CC3"/>
    <path d="M8 37.128V37.0966V33.832H11.2332V37.0966V37.128V57.6257V57.6885V60.8903H8V57.6571V57.6257V37.128Z" fill="#007CC3"/>
    <path d="M41.0853 51.034C41.1794 55.9622 44.2243 59.886 47.9283 59.8232C51.6323 59.7604 54.5516 55.7111 54.4575 50.7828C54.3633 45.8546 51.3184 41.9308 47.6144 41.9936C43.9418 42.0878 41.0225 46.1371 41.0853 51.034ZM68.0494 45.1012C68.1435 45.2896 67.9238 44.8187 67.9238 44.8187L68.0494 45.1012ZM70.2781 65.4734C70.435 65.2223 70.6234 64.8456 70.8745 64.3434L70.2781 65.4734ZM70.4664 43.4062C70.4978 43.5003 70.5606 43.6259 70.592 43.7515L71.6906 46.4196L70.4664 43.4062ZM56.8117 56.9039C58.8207 58.7245 60.6413 59.6663 62.9642 59.6663C65.3498 59.6976 67.453 58.5362 67.453 56.3075C67.453 54.4555 65.7893 53.3568 62.8386 52.1012C60.3274 51.034 58.4754 50.2492 57.5023 48.7111C57.6279 49.4017 57.6906 50.0923 57.6906 50.8142C57.6906 56.8411 53.296 61.738 47.8969 61.738C42.4978 61.738 38.1032 56.8411 38.1032 50.8142C38.1032 47.173 39.7041 43.9398 42.1525 41.9622H35.5292V57.6259V57.6887V60.9219H32.5785V57.8142C32.5785 57.7515 32.5785 57.6887 32.5785 57.6573V41.9936H29.9731V40.016H32.6099C32.9552 36.0295 35.4036 33.8008 38.8252 33.8008C41.0539 33.8008 42.2467 34.0205 42.9687 34.3658V37.0654C42.9687 37.2537 42.9687 37.3793 42.9687 37.3793C42.9373 37.3793 42.8745 37.3793 42.8745 37.3793C41.8072 36.4062 40.7714 35.6528 38.2915 35.6528C36.3453 35.6528 35.0583 37.2537 35.4978 40.016H46.5158C46.9552 39.9532 47.4261 39.9219 47.8969 39.9219C51.8207 39.9219 55.2108 42.4959 56.7489 46.2313C56.7489 46.0115 56.7175 45.8232 56.7175 45.5721C56.7175 41.6797 60.4844 40.0474 64.3767 40.0474C64.5337 40.0474 64.6592 40.0474 64.8162 40.0474C66.1974 40.016 68.1435 40.4869 69.3364 40.8008L70.435 43.4689L71.6592 46.4824L74.9866 54.5497L75.3633 55.8367L75.8027 54.5497L79.9776 44.1909C80.7624 41.3344 83.8072 40.1102 87.1974 40.1102C88.8924 40.1102 90.1166 40.2985 91.592 40.8322V43.9712C89.7714 42.6528 88.453 41.868 86.3812 41.868C84.5606 41.868 82.3633 42.6842 82.3633 45.3523C82.3319 47.3613 83.5561 47.738 87.1032 49.4958C90.0225 50.7515 92.722 52.164 92.7534 55.3972C92.7534 60.7963 87.4171 61.738 84.8117 61.738C82.4888 61.738 80.3857 61.173 79.1929 60.1999V56.6214L79.3812 56.7784C81.4844 58.7559 83.3364 59.7604 85.7534 59.7604C88.1391 59.7918 90.2422 58.6304 90.2422 56.4017C90.2422 54.5497 88.5785 53.451 85.6279 52.1954C82.8027 50.9712 80.9507 50.155 80.1974 48.1461C79.0359 50.9398 73.6996 63.9667 72.444 66.7604H69.5561L70.2467 65.4734L70.8431 64.3434L70.8745 64.312C71.5965 62.8994 72.6637 60.6707 73.574 58.5048L68.018 45.1012C67.9866 45.0071 67.8924 44.8187 67.7041 44.3793C67.2646 43.4062 66.8879 42.5272 65.6951 42.0564C65.0673 41.8367 64.3767 41.7425 63.5606 41.7425C61.74 41.7425 59.3857 42.5586 59.3857 45.2268C59.3543 47.2358 60.7041 47.6124 64.2512 49.3703C67.1705 50.6259 69.87 52.0384 69.9014 55.2716C69.9014 60.6707 64.5651 61.6124 61.9597 61.6124C59.8879 61.6124 58.0045 61.173 56.7489 60.3568V56.9039H56.8117Z" fill="#007CC3"/>
    <path d="M68.0489 45.1009C68.1431 45.2892 67.9233 44.8184 67.9233 44.8184L68.0489 45.1009Z" fill="#007CC3"/>
    <path d="M70.4663 43.4062C70.4977 43.5004 70.5605 43.626 70.5919 43.7515L71.6905 46.4197L70.4663 43.4062Z" fill="#007CC3"/>
    <path d="M17.323 40.1731L17.3543 42.5274V42.6843H17.3857C17.4171 42.5902 17.4799 42.496 17.5113 42.4332C18.7041 41.1462 20.2108 39.8906 23.7893 39.8906C27.2108 39.8906 29.4395 42.8099 29.5337 44.6305V57.5947V57.6574V60.8592H26.583V56.9982V45.9489C26.583 43.6574 24.5741 42.0252 22.1256 42.0252C20.0853 42.0252 17.4485 43.8458 17.3857 45.7292V57.5947V57.6888V60.8906H14.4351V57.5947V42.8727V40.1418H14.9687H16.5696H17.323V40.1731Z" fill="#007CC3"/>
    </svg>
