<svg width="101" height="100" viewBox="0 0 101 100" fill="none" xmlns="http://www.w3.org/2000/svg">
<g clip-path="url(#clip0_34143_101958)">
<path d="M23.371 59.8944C22.8175 59.7553 22.249 59.6848 21.6782 59.6846H17.2717C17.2439 59.684 17.2164 59.6891 17.1907 59.6994C17.1649 59.7097 17.1416 59.7252 17.122 59.7447C17.1024 59.7643 17.0869 59.7877 17.0766 59.8134C17.0663 59.8391 17.0612 59.8667 17.0618 59.8944V74.5791C17.0612 74.6068 17.0663 74.6344 17.0766 74.6601C17.0869 74.6858 17.1024 74.7092 17.122 74.7288C17.1416 74.7484 17.1649 74.7638 17.1907 74.7741C17.2164 74.7845 17.2439 74.7895 17.2717 74.7889H21.6782C25.3551 74.7889 28.8127 71.8519 28.8127 67.2368C28.8127 63.3417 26.3499 60.642 23.371 59.8944ZM21.6782 72.6911H19.37C19.3423 72.6917 19.3148 72.6866 19.289 72.6763C19.2633 72.666 19.2399 72.6505 19.2203 72.6309C19.2007 72.6113 19.1853 72.588 19.175 72.5623C19.1646 72.5365 19.1596 72.509 19.1602 72.4813V61.9922C19.1596 61.9645 19.1646 61.937 19.175 61.9112C19.1853 61.8855 19.2007 61.8622 19.2203 61.8426C19.2399 61.823 19.2633 61.8075 19.289 61.7972C19.3148 61.7869 19.3423 61.7818 19.37 61.7824H21.6782C24.3841 61.7824 26.7143 64.2998 26.7143 67.2368C26.7143 70.1737 24.1006 72.6911 21.6782 72.6911H21.6782Z" fill="#302D2D"/>
<path d="M45.24 72.6613C45.2237 72.6121 45.1897 72.5707 45.1446 72.5451C45.0995 72.5195 45.0465 72.5115 44.9959 72.5228C44.7214 72.5839 44.2266 72.6911 44.1308 72.6911C43.2914 72.6911 43.2914 71.852 43.2914 71.852V59.8944C43.292 59.8667 43.287 59.8391 43.2766 59.8134C43.2663 59.7877 43.2509 59.7643 43.2313 59.7447C43.2117 59.7252 43.1883 59.7097 43.1626 59.6994C43.1368 59.6891 43.1093 59.684 43.0816 59.6846H41.4029C41.3752 59.684 41.3476 59.6891 41.3219 59.6994C41.2962 59.7097 41.2728 59.7252 41.2532 59.7447C41.2336 59.7643 41.2181 59.7877 41.2078 59.8134C41.1975 59.8391 41.1925 59.8667 41.193 59.8944V71.852C41.193 71.852 41.193 74.7889 44.1308 74.7889C44.6846 74.7889 45.3212 74.5668 45.6269 74.4458C45.6767 74.426 45.717 74.3879 45.7395 74.3393C45.762 74.2907 45.765 74.2353 45.7479 74.1846L45.24 72.6613Z" fill="#302D2D"/>
<path d="M72.4588 64.7193H70.7801C70.7524 64.7187 70.7248 64.7237 70.6991 64.7341C70.6734 64.7444 70.65 64.7598 70.6304 64.7794C70.6108 64.799 70.5953 64.8224 70.585 64.8481C70.5747 64.8738 70.5696 64.9014 70.5702 64.9291V74.579C70.5696 74.6067 70.5747 74.6343 70.585 74.66C70.5953 74.6857 70.6108 74.7091 70.6304 74.7287C70.65 74.7483 70.6734 74.7637 70.6991 74.774C70.7248 74.7844 70.7524 74.7894 70.7801 74.7888H72.4588C72.4865 74.7894 72.514 74.7844 72.5398 74.774C72.5655 74.7637 72.5888 74.7483 72.6085 74.7287C72.6281 74.7091 72.6435 74.6857 72.6538 74.66C72.6642 74.6343 72.6692 74.6067 72.6686 74.579V64.9291C72.6692 64.9014 72.6642 64.8738 72.6538 64.8481C72.6435 64.8224 72.6281 64.799 72.6085 64.7794C72.5888 64.7598 72.5655 64.7444 72.5398 64.7341C72.514 64.7237 72.4865 64.7187 72.4588 64.7193Z" fill="#302D2D"/>
<path d="M71.6195 61.7837C71.8267 61.7835 72.0293 61.7219 72.2015 61.6066C72.3737 61.4914 72.5079 61.3277 72.5872 61.1363C72.6664 60.9448 72.6871 60.7342 72.6466 60.531C72.6061 60.3278 72.5063 60.1412 72.3597 59.9947C72.2132 59.8482 72.0265 59.7484 71.8233 59.7079C71.62 59.6675 71.4093 59.6881 71.2178 59.7673C71.0263 59.8465 70.8626 59.9807 70.7474 60.1529C70.6321 60.3251 70.5705 60.5276 70.5703 60.7347C70.5703 61.0129 70.6808 61.2797 70.8776 61.4764C71.0744 61.6731 71.3412 61.7837 71.6195 61.7837Z" fill="#302D2D"/>
<path d="M38.9365 71.9568L37.2764 71.4324C37.2355 71.4192 37.1915 71.4189 37.1504 71.4318C37.1094 71.4446 37.0733 71.4699 37.0473 71.5041C36.7806 71.8793 36.4263 72.1836 36.015 72.3905C35.6038 72.5974 35.1482 72.7006 34.6879 72.6911C34.1071 72.6967 33.538 72.5275 33.0546 72.2056C32.5712 71.8837 32.1957 71.4239 31.9771 70.8859C31.9636 70.8539 31.9582 70.8191 31.9614 70.7845C31.9646 70.75 31.9763 70.7167 31.9954 70.6878C32.0146 70.6588 32.0406 70.6351 32.0712 70.6186C32.1017 70.6021 32.1359 70.5934 32.1706 70.5933H39.4729C39.5243 70.5931 39.5738 70.5741 39.6122 70.54C39.6506 70.5059 39.6753 70.4589 39.6815 70.4079C39.7068 70.1905 39.721 69.9719 39.7242 69.753C39.7242 66.8161 37.416 64.7183 34.6881 64.7183C31.9602 64.7183 29.652 66.8161 29.652 69.753C29.647 70.4156 29.7738 71.0727 30.0251 71.6858C30.2764 72.299 30.6471 72.8561 31.1157 73.3247C31.5843 73.7933 32.1415 74.1641 32.7548 74.4155C33.368 74.6669 34.0252 74.7938 34.688 74.789C37.419 74.789 38.4674 73.3161 39.0575 72.2589C39.0726 72.2316 39.0815 72.2013 39.0834 72.1703C39.0853 72.1392 39.0803 72.108 39.0688 72.0791C39.0572 72.0502 39.0393 72.0242 39.0164 72.0031C38.9936 71.9819 38.9663 71.9661 38.9365 71.9568ZM32.2851 68.7053C32.2489 68.7052 32.2133 68.6957 32.1817 68.6778C32.1502 68.66 32.1238 68.6342 32.1051 68.6032C32.0865 68.5721 32.0761 68.5368 32.0751 68.5006C32.0741 68.4643 32.0824 68.4285 32.0993 68.3964C32.3443 67.9211 32.7155 67.5224 33.1722 67.244C33.6289 66.9657 34.1534 66.8184 34.6883 66.8185C35.2232 66.8185 35.7477 66.9658 36.2044 67.2442C36.661 67.5225 37.0322 67.9213 37.2772 68.3966C37.294 68.4287 37.3023 68.4646 37.3012 68.5008C37.3002 68.537 37.2898 68.5723 37.2711 68.6033C37.2524 68.6343 37.2261 68.66 37.1945 68.6779C37.163 68.6957 37.1275 68.7052 37.0912 68.7053H32.2851Z" fill="#302D2D"/>
<path d="M52.4435 64.7211C51.3455 64.6913 50.268 65.0228 49.3767 65.6645V64.9293C49.3767 64.8736 49.3546 64.8203 49.3152 64.7809C49.2759 64.7416 49.2225 64.7195 49.1669 64.7195H47.4882C47.4325 64.7195 47.3791 64.7416 47.3398 64.7809C47.3004 64.8203 47.2783 64.8736 47.2783 64.9293V79.614C47.2783 79.6696 47.3004 79.723 47.3398 79.7623C47.3791 79.8016 47.4325 79.8237 47.4882 79.8237H49.1669C49.2225 79.8237 49.2759 79.8016 49.3152 79.7623C49.3546 79.723 49.3767 79.6696 49.3767 79.614V73.8439C50.2321 74.46 51.2601 74.7907 52.3144 74.789C55.1606 74.789 57.3505 72.6258 57.3505 69.7542C57.3506 67.0271 55.0807 64.7871 52.4435 64.7211ZM52.3145 72.6924C51.7334 72.6924 51.1655 72.5201 50.6824 72.1974C50.1993 71.8747 49.8227 71.416 49.6004 70.8793C49.378 70.3427 49.3198 69.7522 49.4332 69.1825C49.5465 68.6127 49.8263 68.0894 50.2372 67.6787C50.648 67.268 51.1715 66.9882 51.7414 66.8749C52.3112 66.7616 52.9019 66.8198 53.4387 67.042C53.9755 67.2643 54.4343 67.6408 54.7571 68.1237C55.0799 68.6067 55.2522 69.1746 55.2522 69.7554C55.252 70.5343 54.9425 71.2812 54.3916 71.832C53.8407 72.3827 53.0936 72.6922 52.3145 72.6924Z" fill="#302D2D"/>
<path d="M63.6457 64.7194C62.5914 64.7177 61.5634 65.0484 60.708 65.6645V59.8944C60.7125 59.8658 60.7102 59.8366 60.7013 59.8091C60.6923 59.7815 60.677 59.7565 60.6565 59.7361C60.6361 59.7156 60.611 59.7003 60.5835 59.6913C60.556 59.6824 60.5267 59.6801 60.4981 59.6846H58.8194C58.7908 59.6801 58.7616 59.6824 58.734 59.6913C58.7065 59.7003 58.6815 59.7156 58.661 59.7361C58.6405 59.7565 58.6252 59.7815 58.6163 59.8091C58.6073 59.8366 58.605 59.8658 58.6096 59.8944V74.5791C58.605 74.6077 58.6073 74.637 58.6162 74.6645C58.6252 74.692 58.6405 74.7171 58.661 74.7375C58.6815 74.758 58.7065 74.7733 58.734 74.7823C58.7616 74.7912 58.7908 74.7935 58.8194 74.7889H60.4981C60.5267 74.7935 60.556 74.7912 60.5835 74.7823C60.611 74.7733 60.6361 74.758 60.6565 74.7375C60.677 74.7171 60.6923 74.692 60.7013 74.6645C60.7102 74.637 60.7125 74.6077 60.708 74.5791V69.7542C60.708 68.9752 61.0175 68.2282 61.5684 67.6774C62.1193 67.1267 62.8665 66.8172 63.6457 66.8172C64.4248 66.8172 65.172 67.1267 65.7229 67.6774C66.2739 68.2282 66.5834 68.9752 66.5834 69.7542V74.5791C66.5788 74.6077 66.5811 74.637 66.59 74.6645C66.599 74.692 66.6143 74.7171 66.6348 74.7375C66.6553 74.758 66.6803 74.7733 66.7078 74.7823C66.7354 74.7912 66.7646 74.7935 66.7932 74.7889H68.4719C68.5005 74.7935 68.5298 74.7912 68.5573 74.7823C68.5848 74.7733 68.6099 74.758 68.6303 74.7375C68.6508 74.7171 68.6661 74.692 68.6751 74.6645C68.684 74.637 68.6863 74.6077 68.6818 74.5791V69.7542C68.6818 68.4189 68.1512 67.1383 67.2067 66.1941C66.2623 65.2499 64.9813 64.7194 63.6457 64.7194Z" fill="#302D2D"/>
<path d="M80.6427 69.7541L84.1624 65.0623C84.1929 65.0246 84.2096 64.9776 84.2097 64.9291C84.2097 64.8735 84.1875 64.8201 84.1482 64.7808C84.1088 64.7414 84.0555 64.7193 83.9998 64.7193H82.0062C81.9755 64.7193 81.9452 64.7261 81.9175 64.7391C81.8897 64.7522 81.8652 64.7712 81.8456 64.7948C81.8408 64.7999 81.8366 64.8056 81.8331 64.8116L79.384 68.0762L76.9349 64.8116C76.9307 64.8064 76.9265 64.8001 76.9223 64.7948C76.9026 64.7712 76.8779 64.7522 76.85 64.7391C76.822 64.7261 76.7916 64.7193 76.7608 64.7193H74.7783C74.7292 64.718 74.6811 64.7334 74.6418 64.7629C74.6026 64.7925 74.5745 64.8345 74.5622 64.8821C74.5559 64.9101 74.5553 64.9392 74.5606 64.9675C74.5659 64.9958 74.5768 65.0227 74.5929 65.0466L74.6055 65.0623L78.1252 69.7541L74.6055 74.4458L74.5929 74.4616C74.5768 74.4855 74.5659 74.5124 74.5606 74.5407C74.5553 74.569 74.5559 74.598 74.5622 74.6261C74.5745 74.6737 74.6026 74.7157 74.6418 74.7452C74.6811 74.7748 74.7292 74.7902 74.7783 74.7888H76.7608C76.7916 74.7889 76.822 74.7821 76.85 74.7691C76.8779 74.756 76.9026 74.737 76.9223 74.7133C76.9265 74.7081 76.9307 74.7018 76.9349 74.6965L79.384 71.432L81.8331 74.6965C81.8366 74.7026 81.8408 74.7082 81.8456 74.7133C81.8652 74.737 81.8897 74.756 81.9175 74.769C81.9452 74.7821 81.9755 74.7889 82.0062 74.7888H83.9998C84.0274 74.7888 84.0547 74.7834 84.0801 74.7729C84.1056 74.7624 84.1287 74.7469 84.1482 74.7274C84.1677 74.7079 84.1832 74.6848 84.1937 74.6594C84.2043 74.6339 84.2097 74.6066 84.2097 74.5791C84.2096 74.5306 84.1929 74.4836 84.1625 74.4459L80.6427 69.7541Z" fill="#302D2D"/>
<path d="M58.1994 40.6221L58.2332 40.6542L54.4444 35.6475L58.1994 30.673C59.7774 28.5233 60.8263 27.7567 62.7636 27.0149C61.8052 26.6739 60.7947 26.5023 59.7774 26.5078C56.8225 26.5078 54.1198 27.9248 52.511 30.1448L51.3971 31.6489L47.6228 26.5146C46.1973 24.6204 44.3509 23.0834 42.2294 22.0247C40.1078 20.9661 37.7693 20.4149 35.3982 20.4146H29.3033C30.3436 20.4183 31.381 20.5246 32.4004 20.732C36.0767 21.475 39.3468 23.5544 41.5784 26.5682L48.3496 35.6475L41.5913 44.7261L41.5784 44.7269C39.3468 47.7407 36.0767 49.8201 32.4004 50.5631C31.381 50.7705 30.3436 50.8768 29.3033 50.8805H35.3982C37.7693 50.8802 40.1078 50.329 42.2294 49.2704C44.3509 48.2117 46.1973 46.6747 47.6228 44.7805L51.397 39.6462L52.511 41.1502C54.1198 43.3703 56.8224 44.7873 59.7774 44.7873C60.7947 44.7928 61.8051 44.6211 62.7636 44.2802C60.8263 43.5383 59.7774 42.7718 58.1994 40.6221Z" fill="#16597D"/>
<path d="M32.3486 44.2654C30.9698 44.7518 29.4945 44.9004 28.0463 44.6989C26.5982 44.4974 25.2195 43.9516 24.026 43.1074C22.8325 42.2631 21.8589 41.1449 21.187 39.8467C20.5151 38.5485 20.1644 37.1081 20.1644 35.6464C20.1644 34.1847 20.5151 32.7443 21.187 31.4461C21.8589 30.1479 22.8325 29.0297 24.026 28.1854C25.2195 27.3412 26.5982 26.7954 28.0463 26.5939C29.4945 26.3924 30.9698 26.541 32.3486 27.0274C30.5661 27.6579 29.0229 28.8252 27.9314 30.3687C26.8399 31.9123 26.2538 33.7561 26.2538 35.6464C26.2538 37.5367 26.8399 39.3805 27.9314 40.9241C29.0229 42.4676 30.5661 43.6349 32.3486 44.2654Z" fill="#16597D"/>
<path d="M81.1071 35.6475C81.1075 37.6481 80.7136 39.6291 79.9481 41.4775C79.1825 43.3258 78.0601 45.0052 76.6452 46.4198C75.2302 47.8344 73.5503 48.9565 71.7015 49.7218C69.8527 50.4872 67.8711 50.881 65.87 50.8805H59.7779C60.8017 50.8811 61.8229 50.7789 62.8261 50.5753C69.7358 49.1691 74.9571 42.9774 75.0123 35.6475C74.9571 28.3177 69.7293 22.1262 62.8197 20.7199C61.8177 20.5163 60.7977 20.414 59.7753 20.4146H65.8701C67.8711 20.4141 69.8527 20.8079 71.7015 21.5733C73.5503 22.3386 75.2302 23.4607 76.6452 24.8753C78.0601 26.2899 79.1825 27.9693 79.9481 29.8176C80.7136 31.666 81.1075 33.647 81.1071 35.6475Z" fill="#16597D"/>
<path d="M81.107 49.3468C81.1089 49.6486 81.021 49.9443 80.8545 50.1961C80.688 50.4479 80.4504 50.6446 80.1719 50.7612C79.8933 50.8779 79.5864 50.9091 79.2901 50.851C78.9938 50.7929 78.7214 50.6481 78.5076 50.435C78.2937 50.2219 78.148 49.9501 78.089 49.654C78.0299 49.358 78.0602 49.0511 78.176 48.7723C78.2917 48.4934 78.4877 48.2553 78.739 48.088C78.9904 47.9208 79.2858 47.8319 79.5878 47.8328C79.7874 47.8311 79.9853 47.869 80.1701 47.9444C80.3549 48.0198 80.5229 48.1312 80.6642 48.272C80.8056 48.4129 80.9175 48.5805 80.9935 48.765C81.0695 48.9495 81.1081 49.1472 81.107 49.3468ZM78.4394 49.3468C78.4394 50.0208 78.9277 50.5561 79.5969 50.5561C80.2479 50.5561 80.7272 50.0208 80.7272 49.356C80.7272 48.682 80.2479 48.1375 79.5878 48.1375C78.9276 48.1375 78.4394 48.682 78.4394 49.3468Z" fill="#16597D"/>
<path d="M79.5892 49.5816H79.35V50.1353H79.0354V48.5405H79.6735C79.7431 48.5403 79.812 48.5539 79.8764 48.5803C79.9407 48.6068 79.9992 48.6457 80.0486 48.6948C80.0979 48.7439 80.137 48.8022 80.1638 48.8664C80.1905 48.9306 80.2044 48.9995 80.2045 49.0691C80.2027 49.1677 80.1728 49.2639 80.1183 49.3462C80.0638 49.4285 79.987 49.4936 79.8969 49.5338L80.2501 50.1353H79.9105L79.5892 49.5816ZM79.35 49.306H79.6735C79.7325 49.301 79.7876 49.2739 79.8277 49.2303C79.8678 49.1866 79.89 49.1295 79.89 49.0702C79.89 49.0109 79.8678 48.9538 79.8277 48.9101C79.7876 48.8664 79.7325 48.8394 79.6735 48.8344H79.35V49.306Z" fill="#16597D"/>
<path d="M75.0122 35.6551C75.0125 35.6626 75.0125 35.6547 75.0122 35.6465C75.0122 35.6497 75.0122 35.6476 75.0122 35.6476" fill="#16597D"/>
<path d="M74.9698 35.6551C74.9701 35.6626 74.9701 35.6547 74.9698 35.6465V35.6551Z" fill="#16597D"/>
<path d="M74.8748 35.6547L74.97 35.6465V35.6475" fill="#16597D"/>
<path d="M74.97 35.6482L74.9701 35.6384C74.9701 35.6332 74.97 35.6325 74.97 35.6471" fill="#16597D"/>
<path d="M74.97 35.6471L74.9701 35.6384C74.97 35.6332 74.97 35.6325 74.97 35.6471Z" fill="#16597D"/>
<path d="M74.97 35.6382L75.0651 35.6464L74.97 35.6545V35.6464V35.6474" fill="#16597D"/>
<path d="M74.97 35.6382L75.0651 35.6464L74.97 35.6545V35.6464V35.6382Z" fill="#16597D"/>
<path d="M74.97 35.6483C74.97 35.6483 74.97 35.6439 74.9701 35.6471C74.9701 35.6389 74.9701 35.631 74.97 35.6385" fill="#16597D"/>
</g>
<defs>
<clipPath id="clip0_34143_101958">
<rect width="67" height="59.4507" fill="white" transform="translate(17.1135 20.2747)"/>
</clipPath>
</defs>
</svg>
