<?xml version="1.0" encoding="UTF-8"?>
<svg id="Layer_1" data-name="Layer 1" xmlns="http://www.w3.org/2000/svg" viewBox="0 0 600 400">
  <defs>
    <style>
      .cls-1 {
        fill: #047a92;
      }

      .cls-2 {
        fill: #f6921e;
      }
    </style>
  </defs>
  <path class="cls-1" d="m434.57,114.92C429.84,50.76,376.42,0,311.43,0c-44.3,0-83.23,23.58-105.01,58.93-39.98,11.73-69.28,48.91-69.28,92.86,0,51.8,40.71,94.22,91.65,96.6,1.84.14,3.69.2,5.56.2,5.8,0,11.46-.62,16.9-1.8,71.43-15.51,88.43-99.7,132.49-109.15,3.86-.83,7.92-.41,11.72.39,14.82,2.95,26.41,15.06,28.65,30.22.27,1.77.42,3.56.42,5.38,0,.14,0,.27-.02.4-.14,14.34-8.58,26.68-20.68,32.44-4.67,2.23-9.9,3.47-15.4,3.47-7.59.02-14.9-2.33-20.99-6.73l-24.83,29.42c12.99,10.18,29.13,15.88,45.82,15.88,6.84,0,13.47-.94,19.77-2.69.05-.02.1-.03.15-.04,5.82-1.63,11.35-3.95,16.5-6.88.06-.04.13-.07.21-.12,22.57-12.87,37.82-37.25,37.82-65.16,0-23.76-11.07-44.99-28.29-58.7Zm-46.15-16.17c-60.36.1-78.49,68.04-120.57,99.64-18.94,14.23-39.13,11.91-46.88,10.21-25.98-5.7-45.49-29-45.49-56.82,0-13.78,4.78-26.44,12.78-36.42,8.05-10.08,19.4-17.4,32.37-20.33.05-.02.1-.03.16-.03,4.41-.75,8.94-1.16,13.55-1.16,1.32,0,2.62.03,3.91.1.78.03,1.56.08,2.34.15,17.96,2.27,33.89,12.88,42.98,28.92l25.73-30.49c-13.08-17.01-31.34-29.05-51.9-34.39.08-.12.18-.22.28-.33h.01c14.66-12.03,33.36-19.25,53.72-19.25,38.19,0,70.59,25.42,81.33,60.32-1.44-.08-2.9-.13-4.34-.13Z"/>
  <g>
    <g>
      <path class="cls-1" d="m36.79,381.77c0-2.55-.9-4.52-2.7-5.88-1.8-1.37-5.05-2.81-9.74-4.33-4.69-1.52-8.4-3.01-11.13-4.48-7.45-4.03-11.18-9.45-11.18-16.27,0-3.55,1-6.71,3-9.49,2-2.78,4.87-4.95,8.61-6.51,3.74-1.56,7.94-2.34,12.6-2.34s8.87.85,12.53,2.55c3.67,1.7,6.51,4.09,8.54,7.19,2.03,3.1,3.04,6.61,3.04,10.55h-13.52c0-3.01-.95-5.34-2.84-7.01-1.89-1.67-4.55-2.5-7.98-2.5s-5.88.7-7.71,2.1c-1.83,1.4-2.75,3.24-2.75,5.52,0,2.13,1.07,3.92,3.22,5.36,2.15,1.44,5.31,2.79,9.49,4.06,7.69,2.31,13.3,5.18,16.81,8.61,3.52,3.43,5.27,7.69,5.27,12.8,0,5.68-2.15,10.14-6.45,13.37-4.3,3.23-10.08,4.85-17.36,4.85-5.05,0-9.65-.92-13.79-2.77s-7.31-4.38-9.49-7.6c-2.18-3.22-3.27-6.94-3.27-11.18h13.57c0,7.24,4.33,10.86,12.98,10.86,3.22,0,5.73-.65,7.53-1.96,1.8-1.31,2.7-3.13,2.7-5.48Z"/>
      <path class="cls-1" d="m117.54,398.99h-13.52v-28.13h-26.37v28.13h-13.52v-65.64h13.52v26.6h26.37v-26.6h13.52v65.64Z"/>
      <path class="cls-1" d="m148.35,398.99h-13.52v-65.64h13.52v65.64Z"/>
      <path class="cls-1" d="m204.99,372.17h-25.97v26.82h-13.52v-65.64h42.74v10.95h-29.21v16.95h25.97v10.91Z"/>
      <path class="cls-1" d="m270.1,344.31h-20.11v54.68h-13.52v-54.68h-19.83v-10.95h53.46v10.95Z"/>
    </g>
    <g>
      <path class="cls-1" d="m403.06,375.92l8.67,2.19c-1.82,7.12-5.09,12.54-9.8,16.28-4.72,3.74-10.49,5.61-17.31,5.61s-12.8-1.44-17.22-4.31c-4.42-2.87-7.79-7.04-10.09-12.49-2.31-5.45-3.46-11.3-3.46-17.56,0-6.82,1.3-12.77,3.91-17.85,2.61-5.08,6.31-8.93,11.12-11.57,4.81-2.64,10.1-3.95,15.88-3.95,6.55,0,12.06,1.67,16.53,5,4.47,3.33,7.58,8.03,9.34,14.07l-8.53,2.01c-1.52-4.76-3.72-8.23-6.61-10.41-2.89-2.17-6.52-3.26-10.9-3.26-5.03,0-9.24,1.21-12.62,3.62-3.38,2.41-5.76,5.65-7.13,9.72-1.37,4.06-2.05,8.26-2.05,12.57,0,5.57.81,10.43,2.43,14.59,1.62,4.15,4.15,7.26,7.57,9.31,3.42,2.05,7.13,3.08,11.12,3.08,4.85,0,8.96-1.4,12.33-4.2,3.36-2.8,5.64-6.95,6.84-12.46Z"/>
      <path class="cls-1" d="m425.77,398.88v-65.49h8.04v65.49h-8.04Z"/>
      <path class="cls-1" d="m447.86,375.16c0-8.78,2.44-15.29,7.33-19.52,4.08-3.51,9.05-5.27,14.92-5.27,6.52,0,11.85,2.14,15.99,6.41,4.14,4.27,6.21,10.18,6.21,17.71,0,6.11-.92,10.91-2.75,14.41-1.83,3.5-4.5,6.22-8,8.15-3.5,1.94-7.32,2.9-11.46,2.9-6.64,0-12.01-2.13-16.1-6.39-4.09-4.26-6.14-10.39-6.14-18.4Zm8.26,0c0,6.08,1.32,10.62,3.98,13.65,2.65,3.02,5.99,4.53,10.01,4.53s7.31-1.52,9.96-4.56c2.65-3.04,3.98-7.67,3.98-13.89,0-5.87-1.33-10.31-4-13.33-2.66-3.02-5.98-4.53-9.94-4.53s-7.36,1.5-10.01,4.51c-2.65,3.01-3.98,7.55-3.98,13.62Z"/>
      <path class="cls-1" d="m537.4,398.88v-6.97c-3.69,5.36-8.71,8.04-15.05,8.04-2.8,0-5.41-.54-7.84-1.61-2.43-1.07-4.23-2.42-5.41-4.04-1.18-1.62-2-3.61-2.48-5.96-.33-1.58-.49-4.08-.49-7.5v-29.39h8.04v26.31c0,4.2.16,7.03.49,8.49.51,2.11,1.58,3.77,3.22,4.98,1.64,1.21,3.66,1.81,6.08,1.81s4.68-.62,6.79-1.85,3.61-2.92,4.49-5.05c.88-2.13,1.32-5.22,1.32-9.27v-25.42h8.04v47.44h-7.19Z"/>
      <path class="cls-1" d="m592.54,398.88v-5.99c-3.01,4.71-7.43,7.06-13.27,7.06-3.78,0-7.26-1.04-10.43-3.13-3.17-2.08-5.63-5-7.37-8.73-1.74-3.74-2.61-8.03-2.61-12.89s.79-9.03,2.37-12.89c1.58-3.86,3.95-6.81,7.1-8.87,3.16-2.05,6.69-3.08,10.59-3.08,2.86,0,5.41.6,7.64,1.81,2.23,1.21,4.05,2.78,5.45,4.71v-23.5h8v65.49h-7.46Zm-25.42-23.68c0,6.08,1.28,10.62,3.84,13.62,2.56,3.01,5.58,4.51,9.07,4.51s6.5-1.44,8.96-4.31c2.46-2.87,3.69-7.26,3.69-13.16,0-6.49-1.25-11.26-3.75-14.3-2.5-3.04-5.58-4.56-9.25-4.56s-6.56,1.46-8.96,4.38c-2.4,2.92-3.6,7.52-3.6,13.8Z"/>
    </g>
    <path class="cls-2" d="m336.69,366.18s-27.41-32.08-28.06-32.82h-21.38c3.25,3.66,28.65,32.82,28.65,32.82,0,0-25.39,29.15-28.65,32.82h21.38c.65-.74,28.06-32.82,28.06-32.82Z"/>
  </g>
</svg>