<svg width="100" height="100" viewBox="0 0 100 100" fill="none" xmlns="http://www.w3.org/2000/svg">
<path d="M23.7137 41.2975C25.3544 41.2975 26.6845 39.8877 26.6845 38.1487C26.6845 36.4098 25.3544 35 23.7137 35C22.073 35 20.7429 36.4098 20.7429 38.1487C20.7429 39.8877 22.073 41.2975 23.7137 41.2975Z" fill="#E1251B"/>
<path d="M65.5189 41.2975C67.1597 41.2975 68.4897 39.8877 68.4897 38.1487C68.4897 36.4098 67.1597 35 65.5189 35C63.8783 35 62.5482 36.4098 62.5482 38.1487C62.5482 39.8877 63.8783 41.2975 65.5189 41.2975Z" fill="#231F20"/>
<path d="M96.9022 48.5758C96.5466 47.518 95.9922 46.5478 95.2724 45.7239C94.5731 44.9374 93.7193 44.3232 92.7713 43.9247C91.7533 43.5014 90.6677 43.2906 89.5743 43.304C88.4279 43.2932 87.2899 43.5099 86.2187 43.9426C85.2184 44.3478 84.3038 44.9595 83.528 45.742C82.7519 46.5412 82.1385 47.5006 81.7257 48.5608C81.2697 49.7358 81.0435 50.9969 81.0608 52.2674C81.0608 52.5312 81.0749 52.7801 81.092 53.032C80.8225 52.5729 80.4798 52.1671 80.0791 51.8325C79.5838 51.4255 79.0347 51.0981 78.4494 50.8609C77.8681 50.6214 77.2704 50.4299 76.6613 50.2881C75.9125 50.1253 75.1765 49.9018 74.46 49.6194C74.2595 49.5515 74.085 49.4167 73.9626 49.2351C73.8403 49.0536 73.7765 48.8349 73.7811 48.6118C73.7685 48.3918 73.8212 48.1732 73.9318 47.9866C74.0424 47.7999 74.2054 47.6547 74.3978 47.5712C74.8197 47.3684 75.2785 47.2661 75.7418 47.2713C76.367 47.2697 76.9845 47.4194 77.5468 47.7091C78.0928 47.9824 78.5949 48.3446 79.0351 48.7827L81.9068 45.658C81.0839 44.8499 80.1007 44.2475 79.0294 43.8947C77.9114 43.5014 76.7415 43.2991 75.5635 43.295C74.7889 43.2976 74.0177 43.4054 73.2689 43.6158C72.5201 43.819 71.8086 44.1534 71.1639 44.6054C70.5312 45.0505 70.0013 45.6408 69.6134 46.3327C69.1931 47.1131 68.9846 48.0015 69.0108 48.8996C68.993 49.5959 69.1347 50.2864 69.4239 50.9118C69.6848 51.4523 70.0456 51.9316 70.4849 52.3213C70.9254 52.7046 71.4224 53.0086 71.9561 53.221C72.4914 53.4407 73.0408 53.6201 73.6 53.7577C74.4128 53.9368 75.2083 54.1947 75.9766 54.5284C76.1997 54.611 76.3928 54.7657 76.5288 54.9706C76.6647 55.1755 76.7368 55.4204 76.7348 55.671C76.752 55.9022 76.702 56.1335 76.5918 56.3339C76.4817 56.5343 76.3163 56.6943 76.118 56.7925C75.7299 56.9998 75.3021 57.1096 74.8675 57.1133C74.12 57.1157 73.3825 56.9318 72.7144 56.5766C72.0759 56.2422 71.5006 55.7869 71.0168 55.2331L68.428 58.1269V43.8437H58.449L55.696 54.4144H55.631L52.7196 43.8437H47.4967L44.6673 54.4144H44.574L41.8522 43.8437H34.1451V39.4504H29.0524V43.8437H21.4132V60.5529H26.6022V47.937H29.0722V54.9903C29.0628 55.8127 29.158 56.6327 29.3552 57.4283C29.528 58.1228 29.8472 58.7666 30.2888 59.3115C30.7582 59.8607 31.3523 60.2737 32.0146 60.511C32.8704 60.8136 33.7695 60.9558 34.6714 60.9308C35.2232 60.93 35.7741 60.8799 36.3181 60.7809C36.78 60.7023 37.2351 60.5839 37.679 60.427L37.6167 56.4026C37.3886 56.5032 37.1489 56.5708 36.9038 56.6035C36.6369 56.6465 36.3673 56.6685 36.0974 56.6696C35.3579 56.6696 34.8459 56.4696 34.561 56.0697C34.2763 55.6699 34.1338 55.0802 34.1338 54.3004V47.937H37.5828L41.6937 60.5529H46.9166L49.9554 50.1532H50.0177L53.1299 60.5529H58.3528L63.2333 45.694V60.556H68.4251V58.8046C69.2368 59.5359 70.176 60.0912 71.1894 60.439C72.4087 60.8719 73.6863 61.0926 74.9722 61.0928C75.7821 61.092 76.5891 60.9914 77.3771 60.7929C78.1475 60.606 78.8811 60.2771 79.5444 59.8213C80.1904 59.3723 80.7274 58.7682 81.1118 58.058C81.4619 57.3734 81.6557 56.6112 81.6777 55.8328C81.7031 55.8959 81.72 55.9649 81.7456 56.0278C82.1725 57.0832 82.8095 58.0283 83.6129 58.7987C84.4206 59.5568 85.362 60.1377 86.3828 60.508C87.461 60.9087 88.5958 61.1115 89.7383 61.1077C91.195 61.1403 92.6397 60.8246 93.9653 60.1841C95.1502 59.5946 96.1644 58.6792 96.9022 57.5331L93.292 55.1161C92.9226 55.641 92.447 56.0714 91.9 56.3756C91.2526 56.7182 90.5351 56.8852 89.812 56.8615C88.9027 56.8591 88.0189 56.5433 87.2938 55.9618C86.9551 55.691 86.6671 55.3554 86.4451 54.9722C86.2221 54.5854 86.0866 54.1492 86.0489 53.6978H97.468C97.4888 53.4855 97.4992 53.2723 97.4992 53.059V52.3873C97.5145 51.0894 97.3123 49.7989 96.9022 48.5758ZM86.0291 50.2851C86.0512 49.8579 86.1593 49.4408 86.346 49.0616C86.5354 48.6721 86.7938 48.3249 87.1071 48.039C87.4337 47.7404 87.8085 47.5068 88.2134 47.3493C88.6597 47.1794 89.1311 47.0951 89.6054 47.1004C90.6409 47.1004 91.4171 47.4133 91.9339 48.039C92.4483 48.6586 92.7249 49.46 92.7091 50.2851H86.0291Z" fill="#231F20"/>
<path d="M11.9123 42.1971C10.5919 42.1927 9.2871 42.5 8.09277 43.0967V35H3V51.6433C3 53.5115 3.52269 55.3379 4.502 56.8912C5.4813 58.4447 6.87322 59.6555 8.50172 60.3704C10.1302 61.0854 11.9223 61.2724 13.6511 60.908C15.3799 60.5435 16.9679 59.6438 18.2144 58.3227C19.4607 57.0017 20.3095 55.3185 20.6535 53.4861C20.9973 51.6537 20.8209 49.7544 20.1463 48.0283C19.4717 46.3023 18.3294 44.8271 16.8637 43.789C15.3982 42.7511 13.6751 42.1971 11.9123 42.1971ZM11.9123 55.6916C11.1569 55.6916 10.4184 55.4542 9.79033 55.0094C9.16217 54.5645 8.67265 53.9323 8.38354 53.1925C8.09444 52.4528 8.01873 51.6388 8.16619 50.8535C8.31355 50.0681 8.67732 49.3468 9.2115 48.7807C9.74568 48.2145 10.4263 47.8289 11.1672 47.6727C11.9081 47.5165 12.6761 47.5966 13.374 47.9031C14.072 48.2095 14.6685 48.7284 15.0882 49.3942C15.5079 50.0599 15.7319 50.8426 15.7319 51.6433C15.7312 52.7167 15.3285 53.746 14.6124 54.505C13.8962 55.2641 12.9251 55.6908 11.9123 55.6916Z" fill="#E1251B"/>
</svg>
