<svg width="100" height="100" viewBox="0 0 100 100" fill="none" xmlns="http://www.w3.org/2000/svg">
<path d="M21.9192 41.6327C23.6555 41.6327 25.0629 40.1479 25.0629 38.3163C25.0629 36.4848 23.6555 35 21.9192 35C20.1831 35 18.7755 36.4848 18.7755 38.3163C18.7755 40.1479 20.1831 41.6327 21.9192 41.6327Z" fill="#E1251B"/>
<path d="M66.1576 41.6327C67.8939 41.6327 69.3013 40.1479 69.3013 38.3163C69.3013 36.4848 67.8939 35 66.1576 35C64.4215 35 63.014 36.4848 63.014 38.3163C63.014 40.1479 64.4215 41.6327 66.1576 41.6327Z" fill="#231F20"/>
<path d="M99.3674 49.2985C98.9911 48.1844 98.4044 47.1626 97.6428 46.2948C96.9028 45.4664 95.9993 44.8195 94.9961 44.3998C93.9189 43.954 92.7701 43.7319 91.613 43.746C90.3999 43.7347 89.1956 43.9629 88.0621 44.4187C87.0036 44.8455 86.0358 45.4897 85.2148 46.3138C84.3936 47.1556 83.7445 48.1661 83.3077 49.2827C82.825 50.5203 82.5857 51.8485 82.604 53.1866C82.604 53.4644 82.619 53.7266 82.637 53.9919C82.3519 53.5084 81.9892 53.081 81.5652 52.7286C81.0411 52.2999 80.46 51.9551 79.8407 51.7053C79.2255 51.453 78.593 51.2513 77.9485 51.102C77.1561 50.9305 76.3773 50.6951 75.6191 50.3976C75.4069 50.3262 75.2222 50.1842 75.0927 49.9929C74.9632 49.8017 74.8958 49.5714 74.9006 49.3364C74.8873 49.1047 74.9431 48.8745 75.0602 48.6779C75.1772 48.4813 75.3496 48.3284 75.5532 48.2405C75.9997 48.0268 76.4852 47.9191 76.9754 47.9246C77.6371 47.9228 78.2905 48.0806 78.8855 48.3857C79.4633 48.6735 79.9946 49.055 80.4604 49.5165L83.4993 46.2253C82.6284 45.3743 81.588 44.7397 80.4544 44.3682C79.2713 43.954 78.0333 43.7408 76.7867 43.7366C75.9671 43.7393 75.151 43.8528 74.3586 44.0744C73.5662 44.2884 72.8134 44.6407 72.1311 45.1167C71.4616 45.5855 70.9009 46.2073 70.4904 46.936C70.0456 47.758 69.8249 48.6937 69.8527 49.6396C69.8338 50.3729 69.9838 51.1002 70.2899 51.7589C70.5659 52.3282 70.9478 52.833 71.4126 53.2434C71.8788 53.6471 72.4047 53.9673 72.9694 54.191C73.5359 54.4225 74.1172 54.6114 74.709 54.7563C75.5691 54.9449 76.4109 55.2166 77.2239 55.568C77.46 55.655 77.6643 55.8179 77.8083 56.0338C77.9521 56.2495 78.0284 56.5075 78.0263 56.7714C78.0444 57.015 77.9916 57.2586 77.875 57.4696C77.7584 57.6807 77.5834 57.8492 77.3735 57.9527C76.9629 58.1709 76.5101 58.2866 76.0503 58.2905C75.2593 58.2931 74.4789 58.0994 73.7718 57.7252C73.0962 57.3731 72.4874 56.8935 71.9755 56.3102L69.2359 59.3581V44.3145H58.6761L55.763 55.4479H55.6942L52.6133 44.3145H47.0865L44.0924 55.4479H43.9936L41.1135 44.3145H32.9578V39.6873H27.5686V44.3145H19.4849V61.9133H24.9759V48.6257H27.5896V56.0544C27.5797 56.9207 27.6804 57.7844 27.8891 58.6222C28.0719 59.3537 28.4097 60.0319 28.8771 60.6057C29.3738 61.1842 30.0025 61.6191 30.7033 61.8691C31.6089 62.1878 32.5603 62.3375 33.5147 62.3113C34.0987 62.3104 34.6816 62.2576 35.2572 62.1533C35.746 62.0706 36.2277 61.9459 36.6973 61.7806L36.6314 57.542C36.3901 57.648 36.1364 57.7191 35.877 57.7536C35.5946 57.7989 35.3093 57.8221 35.0237 57.8232C34.2412 57.8232 33.6993 57.6126 33.3979 57.1914C33.0966 56.7703 32.9458 56.1492 32.9458 55.3279V48.6257H36.5956L40.9458 61.9133H46.4726L49.6882 50.9599H49.7541L53.0475 61.9133H58.5744L63.739 46.2632V61.9165H69.233V60.0719C70.0919 60.8421 71.0857 61.4269 72.1581 61.7932C73.4484 62.2492 74.8003 62.4816 76.161 62.4819C77.0181 62.481 77.8721 62.375 78.706 62.166C79.5212 61.9691 80.2975 61.6228 80.9993 61.1427C81.683 60.6698 82.2512 60.0335 82.658 59.2855C83.0284 58.5644 83.2336 57.7617 83.2568 56.9419C83.2837 57.0083 83.3016 57.0809 83.3287 57.1472C83.7804 58.2588 84.4545 59.2542 85.3047 60.0656C86.1594 60.8642 87.1555 61.4759 88.2358 61.8659C89.3767 62.288 90.5776 62.5015 91.7866 62.4976C93.328 62.5319 94.8568 62.1994 96.2596 61.5248C97.5135 60.9039 98.5866 59.9398 99.3674 58.7327L95.5471 56.187C95.1562 56.7399 94.6529 57.1932 94.074 57.5136C93.389 57.8744 92.6298 58.0503 91.8645 58.0253C90.9023 58.0228 89.9671 57.6902 89.1998 57.0777C88.8413 56.7925 88.5366 56.439 88.3017 56.0354C88.0658 55.6281 87.9223 55.1687 87.8825 54.6932H99.9662C99.9882 54.4696 99.9992 54.2451 99.9992 54.0204V53.3129C100.015 51.9459 99.8014 50.5867 99.3674 49.2985ZM87.8615 51.0988C87.8849 50.6489 87.9993 50.2096 88.1969 49.8102C88.3973 49.4 88.6707 49.0343 89.0022 48.7331C89.3478 48.4187 89.7444 48.1726 90.1729 48.0067C90.6452 47.8278 91.1441 47.7389 91.6459 47.7446C92.7417 47.7446 93.5631 48.0741 94.11 48.7331C94.6543 49.3857 94.947 50.2298 94.9303 51.0988H87.8615Z" fill="#231F20"/>
<path d="M9.43101 42.5803C8.03377 42.5756 6.65301 42.8993 5.38918 43.5277V35H0V52.5293C0 54.497 0.553116 56.4206 1.58941 58.0567C2.62571 59.6928 4.09864 60.968 5.82192 61.7211C7.5452 62.4741 9.44156 62.671 11.271 62.2872C13.1004 61.9033 14.7808 60.9557 16.0998 59.5643C17.4187 58.1729 18.317 56.4001 18.6809 54.4703C19.0448 52.5403 18.8581 50.5399 18.1442 48.7219C17.4304 46.904 16.2216 45.3502 14.6706 44.2569C13.1198 43.1637 11.2964 42.5803 9.43101 42.5803ZM9.43101 56.7932C8.63168 56.7932 7.85014 56.5431 7.18554 56.0746C6.52082 55.606 6.0028 54.9402 5.69687 54.161C5.39094 53.3819 5.31083 52.5246 5.46687 51.6975C5.6228 50.8703 6.00774 50.1106 6.57301 49.5143C7.13828 48.918 7.8585 48.5119 8.64255 48.3473C9.42661 48.1828 10.2392 48.2672 10.9778 48.59C11.7164 48.9127 12.3476 49.4592 12.7917 50.1605C13.2359 50.8616 13.4729 51.686 13.4729 52.5293C13.4722 53.6599 13.046 54.744 12.2882 55.5434C11.5303 56.3429 10.5028 56.7923 9.43101 56.7932Z" fill="#E1251B"/>
</svg>
