<svg width="100" height="100" viewBox="0 0 100 100" fill="none" xmlns="http://www.w3.org/2000/svg">
    <g clip-path="url(#clip0)">
    <path d="M25.9467 41.0345C27.5267 41.0345 28.8075 39.6836 28.8075 38.0172C28.8075 36.3509 27.5267 35 25.9467 35C24.3668 35 23.0859 36.3509 23.0859 38.0172C23.0859 39.6836 24.3668 41.0345 25.9467 41.0345Z" fill="#E1251B"/>
    <path d="M66.204 41.0345C67.784 41.0345 69.0648 39.6836 69.0648 38.0172C69.0648 36.3509 67.784 35 66.204 35C64.6241 35 63.3433 36.3509 63.3433 38.0172C63.3433 39.6836 64.6241 41.0345 66.204 41.0345Z" fill="#231F20"/>
    <path d="M96.4252 48.0089C96.0828 46.9953 95.5489 46.0656 94.8558 45.2761C94.1824 44.5224 93.3602 43.9339 92.4473 43.552C91.467 43.1464 90.4216 42.9444 89.3686 42.9572C88.2647 42.9469 87.1688 43.1545 86.1373 43.5692C85.174 43.9575 84.2933 44.5436 83.5462 45.2934C82.7989 46.0593 82.2082 46.9786 81.8107 47.9945C81.3715 49.1205 81.1537 50.3289 81.1704 51.5463C81.1704 51.7991 81.184 52.0376 81.2004 52.279C80.9409 51.8391 80.6109 51.4502 80.225 51.1296C79.7481 50.7396 79.2193 50.4259 78.6557 50.1986C78.0959 49.9691 77.5203 49.7856 76.9338 49.6497C76.2127 49.4937 75.504 49.2795 74.814 49.0089C74.6209 48.9439 74.4529 48.8147 74.335 48.6407C74.2172 48.4667 74.1558 48.2572 74.1602 48.0434C74.1481 47.8326 74.1989 47.6231 74.3054 47.4443C74.4119 47.2654 74.5688 47.1263 74.7541 47.0463C75.1604 46.8519 75.6022 46.7539 76.0483 46.7589C76.6504 46.7573 77.245 46.9008 77.7865 47.1784C78.3123 47.4403 78.7958 47.7874 79.2197 48.2072L81.9851 45.2129C81.1926 44.4386 80.2458 43.8613 79.2142 43.5233C78.1376 43.1464 77.011 42.9525 75.8766 42.9486C75.1307 42.9511 74.3881 43.0544 73.667 43.256C72.9459 43.4507 72.2608 43.7712 71.6399 44.2043C71.0307 44.6308 70.5204 45.1965 70.1469 45.8595C69.7421 46.6073 69.5413 47.4586 69.5666 48.3192C69.5494 48.9864 69.6859 49.6481 69.9644 50.2474C70.2156 50.7653 70.5631 51.2246 70.9861 51.598C71.4103 51.9653 71.8889 52.2566 72.4028 52.4601C72.9183 52.6707 73.4473 52.8426 73.9858 52.9744C74.7685 53.146 75.5346 53.3932 76.2744 53.7129C76.4893 53.7921 76.6752 53.9403 76.8062 54.1367C76.9371 54.333 77.0065 54.5677 77.0046 54.8078C77.0211 55.0294 76.973 55.251 76.8669 55.443C76.7608 55.6351 76.6016 55.7884 76.4106 55.8825C76.0369 56.0811 75.6249 56.1863 75.2064 56.1899C74.4866 56.1922 73.7764 56.016 73.133 55.6756C72.5182 55.3552 71.9642 54.9189 71.4983 54.3882L69.0053 57.1612V43.4744H59.3958L56.7448 53.6037H56.6822L53.8786 43.4744H48.8491L46.1245 53.6037H46.0346L43.4136 43.4744H35.9919V39.2646H31.0877V43.4744H23.7314V59.4859H28.7283V47.3968H31.1068V54.1555C31.0978 54.9436 31.1894 55.7294 31.3793 56.4917C31.5457 57.1572 31.8531 57.7742 32.2784 58.2963C32.7304 58.8226 33.3025 59.2183 33.9403 59.4457C34.7644 59.7357 35.6302 59.8719 36.4987 59.848C37.0301 59.8472 37.5606 59.7992 38.0844 59.7043C38.5292 59.629 38.9675 59.5156 39.3949 59.3652L39.3349 55.5089C39.1153 55.6053 38.8844 55.67 38.6484 55.7014C38.3914 55.7426 38.1318 55.7637 37.8719 55.7647C37.1598 55.7647 36.6667 55.5731 36.3924 55.1899C36.1182 54.8068 35.981 54.2417 35.981 53.4945V47.3968H39.3023L43.261 59.4859H48.2905L51.2167 49.5204H51.2767L54.2737 59.4859H59.3032L64.003 45.2474V59.4888H69.0026V57.8106C69.7842 58.5113 70.6886 59.0434 71.6645 59.3767C72.8387 59.7915 74.0689 60.003 75.3072 60.0032C76.0871 60.0024 76.8643 59.906 77.6231 59.7158C78.365 59.5367 79.0714 59.2216 79.7101 58.7848C80.3322 58.3546 80.8493 57.7757 81.2195 57.0951C81.5566 56.4391 81.7433 55.7088 81.7644 54.9629C81.7889 55.0233 81.8052 55.0894 81.8298 55.1497C82.2409 56.161 82.8543 57.0667 83.628 57.8049C84.4058 58.5314 85.3123 59.088 86.2953 59.4428C87.3336 59.8268 88.4264 60.0211 89.5266 60.0175C90.9293 60.0487 92.3205 59.7462 93.5971 59.1325C94.7381 58.5676 95.7147 57.6904 96.4252 56.5922L92.9487 54.2761C92.593 54.7791 92.135 55.1915 91.6082 55.483C90.9848 55.8113 90.2939 55.9713 89.5975 55.9486C88.7219 55.9463 87.8708 55.6437 87.1726 55.0865C86.8464 54.827 86.5691 54.5054 86.3553 54.1382C86.1406 53.7676 86.0101 53.3496 85.9738 52.917H96.9701C96.9901 52.7136 97.0001 52.5093 97.0001 52.3049V51.6612C97.0148 50.4175 96.8201 49.1809 96.4252 48.0089ZM85.9547 49.6468C85.976 49.2375 86.0801 48.8378 86.2599 48.4744C86.4423 48.1012 86.6911 47.7685 86.9928 47.4945C87.3073 47.2084 87.6682 46.9845 88.0581 46.8336C88.4879 46.6708 88.9419 46.59 89.3986 46.5951C90.3958 46.5951 91.1432 46.8949 91.6409 47.4945C92.1362 48.0882 92.4026 48.8562 92.3874 49.6468H85.9547Z" fill="#231F20"/>
    <path d="M14.5823 41.8966C13.3108 41.8923 12.0543 42.1868 10.9042 42.7586V35H6V50.9483C6 52.7385 6.50334 54.4886 7.44638 55.9771C8.38942 57.4657 9.7298 58.6259 11.298 59.311C12.8662 59.9961 14.5919 60.1753 16.2567 59.8261C17.9215 59.4768 19.4507 58.6147 20.651 57.3488C21.8512 56.0829 22.6686 54.47 22.9998 52.7142C23.3309 50.9583 23.161 49.1383 22.5114 47.4843C21.8618 45.8303 20.7618 44.4167 19.3504 43.422C17.9391 42.4274 16.2798 41.8966 14.5823 41.8966ZM14.5823 54.8276C13.8549 54.8276 13.1437 54.6001 12.5389 54.1738C11.934 53.7475 11.4626 53.1417 11.1842 52.4328C10.9058 51.724 10.8329 50.944 10.9749 50.1915C11.1168 49.4389 11.4671 48.7477 11.9815 48.2052C12.4959 47.6627 13.1513 47.2932 13.8648 47.1435C14.5783 46.9938 15.3178 47.0706 15.9899 47.3643C16.662 47.6579 17.2364 48.1551 17.6406 48.7931C18.0448 49.431 18.2605 50.181 18.2605 50.9483C18.2598 51.9769 17.872 52.9632 17.1824 53.6905C16.4927 54.4179 15.5576 54.8268 14.5823 54.8276Z" fill="#E1251B"/>
    </g>
    <defs>
    <clipPath id="clip0">
    <rect width="91" height="25" fill="white" transform="translate(6 35)"/>
    </clipPath>
    </defs>
    </svg>
